<svg xmlns="http://www.w3.org/2000/svg" width="1090" height="745" viewBox="0 0 1090 745"><rect width="1090" height="745" fill="white"/><g font-family="Arial, sans-serif"><text x="45" y="42" font-size="25" fill="#233746">V3 source-anchored 6T2C</text><text x="45" y="70" font-size="15" fill="#233746">Ideal SWT connection symbols</text><text x="128" y="110" font-size="17" fill="#233746">VREF</text><text x="485" y="110" font-size="17" fill="#233746">VDD</text><text x="115" y="265" font-size="17" fill="#233746">G</text><text x="524" y="332" font-size="17" fill="#233746">S</text><text x="772" y="520" font-size="17" fill="#233746">X</text><polyline points="150,120 150,130" fill="none" stroke="#34576b" stroke-width="2"/><polyline points="150,130 150,142" fill="none" stroke="#34576b" stroke-width="2"/><polyline points="150,142 165,176" fill="none" stroke="#34576b" stroke-width="2"/><polyline points="150,178 150,190" fill="none" stroke="#34576b" stroke-width="2"/><polyline points="150,190 150,230 430,230" fill="none" stroke="#34576b" stroke-width="2"/><text x="185" y="155" font-size="17" fill="#233746">T_GREF</text><text x="185" y="180" font-size="14" fill="#233746">GC</text><polyline points="450,195 450,265" fill="none" stroke="#34576b" stroke-width="2"/><polyline points="430,230 450,230" fill="none" stroke="#34576b" stroke-width="2"/><polyline points="470,195 470,265" fill="none" stroke="#34576b" stroke-width="2"/><polyline points="470,205 500,205 500,120" fill="none" stroke="#34576b" stroke-width="2"/><polyline points="470,255 500,255 500,420" fill="none" stroke="#34576b" stroke-width="2"/><text x="540" y="218" font-size="17" fill="#233746">DTFT</text><text x="540" y="244" font-size="17" fill="#233746">IGZO</text><polyline points="150,230 150,600" fill="none" stroke="#34576b" stroke-width="2"/><polyline points="150,420 273,420" fill="none" stroke="#34576b" stroke-width="2"/><polyline points="273,400 273,440" fill="none" stroke="#34576b" stroke-width="2"/><polyline points="287,400 287,440" fill="none" stroke="#34576b" stroke-width="2"/><polyline points="287,420 500,420" fill="none" stroke="#34576b" stroke-width="2"/><text x="254" y="386" font-size="17" fill="#233746">CST</text><polyline points="150,600 273,600" fill="none" stroke="#34576b" stroke-width="2"/><polyline points="273,580 273,620" fill="none" stroke="#34576b" stroke-width="2"/><polyline points="287,580 287,620" fill="none" stroke="#34576b" stroke-width="2"/><polyline points="287,600 750,600" fill="none" stroke="#34576b" stroke-width="2"/><text x="242" y="565" font-size="17" fill="#233746">CDATA</text><polyline points="500,420 585,420" fill="none" stroke="#34576b" stroke-width="2"/><polyline points="585,420 597,420" fill="none" stroke="#34576b" stroke-width="2"/><polyline points="597,420 631,405" fill="none" stroke="#34576b" stroke-width="2"/><polyline points="633,420 645,420" fill="none" stroke="#34576b" stroke-width="2"/><polyline points="645,420 750,420 750,600" fill="none" stroke="#34576b" stroke-width="2"/><text x="560" y="375" font-size="17" fill="#233746">T_XANCHOR</text><text x="560" y="451" font-size="14" fill="#233746">XC: X to S</text><polyline points="500,420 500,460" fill="none" stroke="#34576b" stroke-width="2"/><polyline points="500,460 500,472" fill="none" stroke="#34576b" stroke-width="2"/><polyline points="500,472 515,506" fill="none" stroke="#34576b" stroke-width="2"/><polyline points="500,508 500,520" fill="none" stroke="#34576b" stroke-width="2"/><polyline points="500,520 500,540" fill="none" stroke="#34576b" stroke-width="2"/><text x="535" y="490" font-size="17" fill="#233746">T_SCLAMP</text><text x="535" y="515" font-size="14" fill="#233746">SC</text><text x="471" y="565" font-size="17" fill="#233746">VINIT</text><polyline points="750,600 790,600" fill="none" stroke="#34576b" stroke-width="2"/><polyline points="790,600 802,600" fill="none" stroke="#34576b" stroke-width="2"/><polyline points="802,600 836,585" fill="none" stroke="#34576b" stroke-width="2"/><polyline points="838,600 850,600" fill="none" stroke="#34576b" stroke-width="2"/><polyline points="850,600 930,600" fill="none" stroke="#34576b" stroke-width="2"/><text x="780" y="560" font-size="17" fill="#233746">T_DATA / DC</text><text x="886" y="633" font-size="17" fill="#233746">DATA</text><polyline points="500,300 670,300" fill="none" stroke="#34576b" stroke-width="2"/><polyline points="670,300 682,300" fill="none" stroke="#34576b" stroke-width="2"/><polyline points="682,300 716,285" fill="none" stroke="#34576b" stroke-width="2"/><polyline points="718,300 730,300" fill="none" stroke="#34576b" stroke-width="2"/><polyline points="730,300 930,300 930,380" fill="none" stroke="#34576b" stroke-width="2"/><text x="665" y="267" font-size="17" fill="#233746">T_EM / EC</text><text x="962" y="356" font-size="17" fill="#233746">OLED_A</text><polyline points="930,380 930,400" fill="none" stroke="#34576b" stroke-width="2"/><path d="M910 400 L950 400 L930 430 Z M910 435 L950 435" fill="none" stroke="#34576b" stroke-width="2"/><polyline points="930,435 930,500" fill="none" stroke="#34576b" stroke-width="2"/><text x="970" y="423" font-size="17" fill="#233746">OLED</text><text x="896" y="529" font-size="17" fill="#233746">ELVSS</text><text x="45" y="682" font-size="16" fill="#233746">A: XC = GC (4 controls)</text><text x="500" y="682" font-size="16" fill="#233746">B: XC ON in PREP (5 controls)</text><text x="45" y="712" font-size="16" fill="#233746">7T variants: see report.</text><circle cx="150" cy="230" r="4" fill="#34576b"/><circle cx="150" cy="420" r="4" fill="#34576b"/><circle cx="500" cy="300" r="4" fill="#34576b"/><circle cx="500" cy="420" r="4" fill="#34576b"/><circle cx="750" cy="600" r="4" fill="#34576b"/></g></svg>